<?xml version="1.0"?>
<svg xmlns="http://www.w3.org/2000/svg" viewBox="0 0 83.12 72">
  <g data-name="Layer 2">
    <path d="M73.43 45.91c9.87-4.42 11.79-11.14 7.62-14.38-3.91-3-11.56-5.14-11.72-8.83a5.43 5.43 0 0 0-1.91 2.65c.51 2.14.47 4.36 1.34 5.47a11.62 11.62 0 0 0 .83.92c1-.18 1.56-.64.64-1.71a6.14 6.14 0 0 1-1.34-4.39c2.31 3.74 12 5.27 7.39 8.57a19.63 19.63 0 0 1-3.44 1.71 11.07 11.07 0 0 1 .63 1.67c2-.27 4.6-1.32 7.67-3.66 0 0 1.29 5.33-8.91 8.7-6.63 2.19-8.4 3.38-3.5 4.74 6.78 1.89-7.17 8.68-3.85 9.85 1.41.5 4.24-.25 4.24-.25s-2.68 11.4-30.21 11.4C11 68.79 6.66 58.66 6.66 58.66c9.19 2.09 5.83-2.36 2.48-4.58-5.37-3.55-1.19-7.85 4.15-9.86a22 22 0 0 1 1.25-2.53 17.39 17.39 0 0 0-10.8 7.24S3.23 40 18.06 36.23c.35-.09.78-.18 1.28-.28a24.12 24.12 0 0 1 2.07-1.5 38.81 38.81 0 0 0-9.9 2.7c-6 2.79-10.28 6.9-10.28 11.56 0 2.41 1 3.94 3 6.11s-1.06 3.37-4.23.91C1.4 61.72 11.36 72 38 72c27.28 0 37.39-12 39-18.84-3.17 2.46-7 1.84-5.13-.09 1.66-1.67 2.92-3.07 2.31-4.68s-3.87-1.08-.75-2.48z" fill="#fff"/>
    <path d="M81.13 33.92c-3.07 2.34-5.63 3.39-7.67 3.66a11.07 11.07 0 0 0-.63-1.67 19.63 19.63 0 0 0 3.44-1.71c4.63-3.3-5.08-4.82-7.39-8.57A6.14 6.14 0 0 0 70.23 30c.92 1.07.33 1.53-.64 1.71a11.62 11.62 0 0 1-.83-.92c-1.32-1.69-.5-5.9-2.77-8.54s-7.72-2.58-9.24-3.52-1.69-2.64-3.4-4.53-4.14-1.38-5.65-2.51c-1.35-1 .25-2.26-.57-5a17.46 17.46 0 0 0-1.78-3.75 3 3 0 0 0-.48-1.73A2.85 2.85 0 0 0 42.48 0C40 0 36.72 2.94 35.4 5.56c-3.82 7.6-3.62 16 1.1 22.89-1.09.18-2.81-.17-3.37 1.49a27.63 27.63 0 0 0-13.79 6c-.5.1-.93.2-1.28.28C3.23 40 3.73 48.93 3.73 48.93a17.39 17.39 0 0 1 10.8-7.24 22 22 0 0 0-1.25 2.53c-5.35 2-9.53 6.32-4.15 9.86 3.36 2.21 6.72 6.67-2.48 4.58 0 0 4.37 10.13 32.25 9.71C66.44 68.37 69.1 57 69.1 57s-2.82.75-4.24.25c-3.32-1.17 10.64-8 3.85-9.85-4.9-1.36-3.13-2.55 3.5-4.74 10.21-3.41 8.92-8.74 8.92-8.74z" fill="#002d62"/>
    <path d="M61.43 40.73c.39-.17.79-.36 1.17-.57 0 0 1-10.23-12.57-19.07-7.35-4.78-10.56-8.24-7.16-17 1.53-3.91-3.77-.84-5.44 2.49a18.38 18.38 0 0 0 .68 18.71 3.58 3.58 0 0 1 2.3-2.39c3.29-.88 5 2.23 6.07 4.08.79 1.43 10.31-5.25 10.8 9.08a23.44 23.44 0 0 1 4.15 4.67z" fill="#7ac143"/>
    <path d="M44.32 32.6C39.71 32.16 38 38 38 38s-4.58-1.54-5.11-5.52c-10.2 1.91-18 9.1-18.72 19.84a7.24 7.24 0 0 0 3 2.51 10.82 10.82 0 0 1 2.3-1.83 2 2 0 0 1 .12-.46c.06-.13.14-.25.22-.38a10.82 10.82 0 0 1-1.16-8.06c.67-2.68 2.77-5.77 6-6.63 2-.54 5.1-.38 8.74 3.38a37.22 37.22 0 0 0 5.26 4.65 36.49 36.49 0 0 0 5.26-4.43c3.7-3.7 6.89-3.8 8.92-3.24a8.76 8.76 0 0 1 5.77 6.28 10.82 10.82 0 0 1-1 7.79 4.38 4.38 0 0 1 .37.66 2.21 2.21 0 0 1 .17.77 10.44 10.44 0 0 1 1.82 1.54c2-1.23 2.8-2.12 2.78-2.4C61.8 42 54.26 34.67 44.32 32.6z" fill="#7ac143"/>
    <path d="M53.41 42.07a6.45 6.45 0 0 0-1.33.29A6.46 6.46 0 0 1 54.77 50a4.56 4.56 0 0 1 1.42.56 9.06 9.06 0 0 0 .6-6 6.92 6.92 0 0 0-4.49-5c-2.24-.62-4.72.34-7.16 2.78a34.14 34.14 0 0 1-6.08 5l-.46.27-.46-.26A33 33 0 0 1 32 42.13c-2.4-2.47-4.81-3.47-7-2.89-2.46.66-4.14 3.22-4.67 5.32a9 9 0 0 0 .69 6.18 4.55 4.55 0 0 1 1.23-.62 6.41 6.41 0 0 1-.45-2.25 6.51 6.51 0 0 1 3.07-5.52 6.41 6.41 0 0 0-1.33-.29c3.29-3 7 1.44 9.16 3.56 1.46 1.4 3.26 2.89 4.32 3.75h2.89c.7-.58 2.5-2.09 4.22-3.75 2.31-2.11 5.98-6.5 9.28-3.55zm-16.27-7.32a5.59 5.59 0 0 1 5.37-4C49.28 30.72 54.9 35 54.9 35c-.45-9.69-6.75-5.12-8.48-5.72-1.32-.47-2.42-3.74-4.48-4.28-3.13-.91-2.44 4-3.68 5.37-1 1.16-2.57-1.24-3.33.7-.82 2.1 2.21 3.73 2.21 3.73m28.96 4.5a25.28 25.28 0 0 0-10.29-17.08c-8.29-6-15.08-7.92-11.31-16.59A9.85 9.85 0 0 1 45.32 9c0 2.11-.62 2.7.13 4 1 1.75 3.08 1.07 5.34 2.52 3 1.91 2.07 3.77 4.72 5.46s5.84.82 8.23 2.95c2 1.78 1.51 5 1.88 7.23s4.46 4.84 4.46 7.29a7.13 7.13 0 0 1-4 .93" fill="#0067b1"/>
    <path d="M59.59 58.37a6.52 6.52 0 0 0-2-3 2.59 2.59 0 0 1-2 1.42 4.81 4.81 0 0 0 .36-3c-.79-2-4.21-2.37-7.22.41a5.24 5.24 0 0 1 .76-2 63 63 0 0 0-10.89-.82 64.8 64.8 0 0 0-10.6.72 5.16 5.16 0 0 1 .79 2.07c-3-2.77-6.42-2.44-7.22-.41a4.81 4.81 0 0 0 .36 3 2.69 2.69 0 0 1-2.11-1.63 6.42 6.42 0 0 0-2.59 4.5c0 3.39 9.83 5.62 21.18 5.62 11.65 0 21.27-2.34 21.36-5.68.05-.03-.06-.57-.18-1.2zm-35.84-1.74l-.42-2.24c2.27.05 3.66 2.43 3.66 2.43a7.72 7.72 0 0 0-3.24-.19zm30 0a7.71 7.71 0 0 0-3.24.19s1.4-2.38 3.66-2.43z" fill="#7ac143"/>
    <path d="M50.29 43.11a15.28 15.28 0 0 0-3.09 2.14c-1.36 1.2-2.5 2.29-3.54 3.11a4.87 4.87 0 0 0 .3 1.18 47.26 47.26 0 0 1 7.29 1c.1 0 .17-.11.28-.16a5.67 5.67 0 0 1 1.15-.38 4.91 4.91 0 0 0-2.4-6.89zm-.58 5.11a2.08 2.08 0 1 1-.91-2.11 1 1 0 0 0-.11.24 1.13 1.13 0 0 0 .82 1.37.93.93 0 0 0 .23 0 1.89 1.89 0 0 1-.03.5zm-22.97-5.11a5 5 0 0 0-3 4.55 4.82 4.82 0 0 0 .63 2.28 5.64 5.64 0 0 1 1.62.43l.17.1a48.15 48.15 0 0 1 6.9-.92 4.82 4.82 0 0 0 .31-1.21c-1.1-.88-2.28-2-3.54-3.09a15.32 15.32 0 0 0-3.09-2.14zm3 3.87a1.12 1.12 0 0 0 1.19.83 1.9 1.9 0 0 1-1.42 1.81 1.93 1.93 0 1 1 .42-3.56 1.12 1.12 0 0 0-.23.94z" fill="#fff"/>
    <path d="M44.92 47.3a2.93 2.93 0 0 0 .68 2.37c1.28.11 2.61.28 3.94.51a3 3 0 0 0 1.21-1.69 2.92 2.92 0 0 0 0-1.32 1.1 1.1 0 0 1-1 .57 1.89 1.89 0 0 1 0 .49 2.08 2.08 0 1 1-.91-2.11 1.1 1.1 0 0 1 1-.59 3 3 0 0 0-1.22-.67 3 3 0 0 0-.82 0c-.18.15-.36.27-.55.44-.89.7-1.64 1.38-2.33 2zm-13.02-.2a1.1 1.1 0 0 1-.78.75.86.86 0 0 1-.19 0 1.9 1.9 0 0 1-1.42 1.81 1.93 1.93 0 1 1 .42-3.56 1.1 1.1 0 0 1 .44-.36l-.5-.45c-.19-.17-.37-.3-.56-.45a3 3 0 0 0-1.93 5.42c1.3-.24 2.6-.4 3.87-.52a3 3 0 0 0 .65-2.64z" fill="#bb813b"/>
  </g>
</svg>